<svg width="240" height="324" viewBox="0 0 240 324" fill="none" xmlns="http://www.w3.org/2000/svg">
<path fill-rule="evenodd" clip-rule="evenodd" d="M198.116 286.314C202.199 286.116 200.557 278.972 200.264 276.348C197.031 266.764 197.791 256.308 196.52 246.263C195.728 236.886 194.71 227.538 193.854 218.168C192.173 199.148 180.099 160.428 166.321 154.201C164.586 146.582 157.417 139.471 148.348 139.471C142.162 132.146 134.716 126.99 125.166 128.031C121.22 128.211 117.392 132.398 113.611 133.207C111.494 133.499 92.7034 132.747 88.9395 134.983C86.3176 136.33 83.9508 138.819 84.7217 141.987C85.9517 145.826 82.1292 141.672 74.1554 145.769C57.8955 155.538 67.6117 168.608 68.0423 169.012C57.8955 183.136 49.0268 194.593 44.9233 211.856C42.2639 224.672 42.5633 237.902 40.335 250.784C39.5483 255.251 38.3413 259.565 37.0352 263.902C35.6197 269.579 34.9315 283.727 34.1512 283.854C32.73 284.207 34.9726 287.126 36.4785 287.128C78.2301 294.057 120.64 287.415 162.615 286.33C174.445 285.919 186.287 285.824 198.116 286.314Z" fill="white"/>
<path fill-rule="evenodd" clip-rule="evenodd" d="M134.835 170.259C134.855 170.068 135.112 170.069 135.132 170.259L135.427 173.106C135.786 176.583 136.131 180.053 136.381 183.546C136.693 187.901 136.902 192.256 137.003 196.622C137.353 211.825 137.423 227.037 137.453 242.245C139.508 242.103 141.564 241.965 143.622 241.833C145.017 241.743 146.413 241.656 147.809 241.571L151.368 241.355L152.833 241.265C153.824 241.204 154.949 240.954 155.641 241.832C155.918 242.183 156.057 242.64 155.799 243.057C155.203 244.019 154.287 243.985 153.252 244.027C152.275 244.066 151.298 244.105 150.321 244.142C148.228 244.224 146.135 244.3 144.041 244.359C141.843 244.421 139.646 244.471 137.45 244.508C137.427 250.929 137.162 257.341 136.875 263.754L136.745 266.64C136.393 274.444 136.016 282.255 135.479 290.049C135.435 290.687 134.532 290.686 134.488 290.049C133.884 281.272 133.485 272.476 133.089 263.687C132.803 257.314 132.636 250.94 132.556 244.565C132.266 244.567 131.975 244.571 131.685 244.572C123.44 244.608 115.197 244.644 106.952 244.567C106.966 244.583 106.979 244.599 106.988 244.621C107.585 246.03 107.642 247.828 107.627 249.34C107.61 251.075 107.377 252.788 106.978 254.474C105.547 260.517 101.857 265.928 97.6545 270.403L97.5173 270.548C96.526 271.596 95.3888 272.649 94.7801 273.983C94.1584 275.346 93.9426 276.94 93.6358 278.404L93.6 278.573L92.4004 284.116C92.0193 285.876 91.9111 288.444 90.518 289.714C89.2183 290.899 87.4964 290.28 86.8848 288.754C86.4071 287.563 86.8829 286.255 87.1658 285.065L89.3822 275.745C89.7464 274.225 90.1444 272.695 90.9304 271.329C91.7355 269.931 92.9159 268.917 94.1203 267.88C96.4009 265.915 98.4946 263.667 100.265 261.232C102.035 258.798 103.548 256.115 104.609 253.294C105.14 251.882 105.575 250.414 105.875 248.935C106.161 247.532 106.158 246.078 106.463 244.69C106.484 244.594 106.565 244.528 106.658 244.499C106.636 244.437 106.67 244.353 106.756 244.348L113.499 243.914C119.493 243.527 125.487 243.131 131.476 242.677L132.534 242.601C132.452 234.095 132.522 225.588 132.675 217.079C132.816 209.276 132.819 201.471 133.051 193.669C133.166 189.797 133.415 185.934 133.692 182.07C133.975 178.118 134.428 174.199 134.835 170.259ZM71.5199 215.502C71.4481 215.069 71.993 214.8 72.2442 215.197C75.1155 219.724 76.4999 224.642 77.0835 229.941C77.599 234.617 77.4471 239.36 77.1904 244.049C76.9166 249.049 76.5971 254.048 76.2741 259.046L75.7778 266.71L74.5324 285.924C74.4433 287.298 74.1314 288.548 72.9485 289.187C72.7987 289.312 72.6426 289.424 72.4607 289.522C71.8216 289.863 70.974 289.691 70.6045 289.035L70.7527 289.132C70.8817 289.213 70.7368 289.1 70.3178 288.792L69.9623 288.332C69.7039 287.943 69.5389 287.561 69.4725 287.1C69.3694 286.382 69.503 285.595 69.5499 284.874L70.3662 272.275C71.0011 262.48 71.7424 252.688 72.3012 242.889C72.5615 238.321 72.7438 233.75 72.6204 229.174C72.4975 224.624 72.2657 219.997 71.5199 215.502ZM96.3595 131.162L96.5188 131.135C102.222 130.187 108.424 130.365 113.636 133.115C113.679 133.137 113.659 133.209 113.611 133.207L111.933 133.14C106.622 132.932 101.327 132.809 96.1054 134.057L95.5708 134.186C93.6901 134.645 91.7262 135.207 90.2156 136.449C88.7718 137.637 88.0529 139.469 87.3616 141.156L87.2692 141.378C86.5678 143.044 85.6801 144.624 84.1428 145.666C82.1516 147.015 79.7568 146.85 77.4737 147.033C73.4537 147.356 70.167 150.271 68.5318 153.837C67.5416 155.997 67.1192 158.418 67.0356 160.78C66.9927 161.982 66.9866 163.231 67.1467 164.426C67.1978 164.808 67.6698 166.199 67.9104 166.166C68.4451 166.091 68.934 166.37 69.1007 166.798C70.4216 165.521 71.7804 164.282 73.183 163.086C76.6793 160.108 80.4452 157.408 84.4111 155.089C87.4379 153.318 90.6306 151.564 93.9367 150.237C93.6747 150.232 93.4163 150.284 93.1664 150.414C93.057 150.471 92.9482 150.334 93.0346 150.243C94.0759 149.147 95.3232 148.991 96.5807 149.283C96.849 149.198 97.1175 149.115 97.3871 149.037C97.5213 148.998 97.588 149.183 97.4786 149.254L97.1697 149.451C98.5415 149.911 99.8883 150.815 100.955 151.528C104.018 153.575 106.714 156.079 109.446 158.535L109.943 158.981C112.349 161.13 114.816 163.218 117.549 164.941C118.98 165.844 120.482 166.678 122.059 167.299C123.411 167.832 125.612 168.167 126.245 169.597C126.808 170.281 126.573 171.153 125.914 171.614C124.802 172.838 122.578 172.047 121.253 171.537C119.656 170.923 118.109 170.184 116.634 169.318C113.769 167.635 111.128 165.544 108.668 163.319C106.098 160.994 103.674 158.526 101.175 156.129C100.092 155.09 99.0339 154.027 97.9494 152.99L97.4047 152.474C96.8511 151.955 96.0625 151.145 95.2193 150.655C93.6308 151.603 92.0178 152.512 90.4436 153.485C88.2462 154.842 86.1135 156.297 84.0137 157.8C79.9713 160.694 76.1406 163.935 72.5843 167.408C66.0621 173.779 60.5053 181.054 55.651 188.756L55.2824 189.343C52.5239 193.752 49.9153 198.303 48.0656 203.175C46.0305 208.536 45.0407 214.173 44.503 219.864C43.9694 225.514 43.7894 231.192 43.193 236.837C42.5813 242.626 41.3763 248.287 40.0056 253.938L39.6787 255.277C38.4384 260.338 37.1583 265.399 36.5207 270.579C36.1804 273.346 35.9756 276.151 36.0219 278.94C36.0684 281.746 36.5091 284.489 36.8647 287.265C37.0009 288.329 35.9547 289.216 35.0186 289.357C33.942 289.519 33.0171 288.832 32.6824 287.832C31.6392 284.713 31.4497 281.265 31.4824 277.991C31.5154 274.668 31.9394 271.366 32.536 268.1C33.7094 261.675 35.5201 255.384 37.0349 249.036C38.3699 243.441 39.2659 237.836 39.7489 232.105C40.2502 226.158 40.5504 220.192 41.465 214.288C42.3678 208.46 44.0663 202.893 46.628 197.579C48.9604 192.74 51.8678 188.186 54.916 183.771C58.6176 178.411 62.683 173.31 67.2274 168.662C66.8192 168.644 66.4001 168.512 66.0152 168.272C64.8375 167.537 64.2891 166.1 64.1205 164.788C63.7259 161.717 63.8211 158.512 64.6104 155.51C65.8837 150.668 69.1884 146.365 73.9778 144.619C75.2106 144.17 76.5211 144.006 77.8275 143.974C79.0673 143.943 80.4213 144.105 81.6175 143.712C83.5215 143.085 84.3376 140.842 85.0525 139.142L85.0854 139.064C86.0021 136.897 87.1024 135.039 89.0879 133.686C91.2062 132.242 93.8603 131.586 96.3595 131.162ZM150.549 139.731C152.263 139.137 154.406 139.677 156.082 140.196C157.949 140.775 159.674 141.842 161.153 143.108C162.714 144.444 164.004 146.093 164.915 147.936L165.002 148.113C165.835 149.823 166.782 152.169 166.363 154.047C166.351 154.1 166.337 154.151 166.321 154.201C169.722 155.875 172.862 157.973 175.597 160.631C178.781 163.727 181.477 167.249 183.759 171.054C192.821 186.167 194.416 204.318 195.486 221.553L195.753 225.923C196.334 235.36 197.014 244.774 198.781 254.08L198.91 254.752C200.798 264.496 203.501 274.314 203.228 284.31C203.145 287.305 198.721 287.284 198.593 284.31C198.11 273.114 195.498 262.304 193.73 251.283C190.618 231.894 192.177 211.904 187.768 192.709C186.038 185.176 183.357 177.869 179.53 171.145C177.639 167.823 175.476 164.613 172.942 161.748C170.762 159.282 168.496 156.909 165.948 154.836C165.134 155.652 163.508 155.236 163.083 154.047C162.791 153.229 162.876 152.274 162.688 151.418C162.514 150.623 162.275 149.836 161.955 149.087C161.318 147.596 160.384 146.164 159.305 144.958C158.139 143.653 156.8 142.569 155.301 141.674C153.791 140.773 152.141 140.504 150.549 139.846C150.495 139.824 150.49 139.752 150.549 139.731ZM157.208 243.355C157.21 243.277 157.303 243.24 157.36 243.292C157.961 243.845 158.324 244.639 158.766 245.32C159.276 246.104 159.812 246.873 160.373 247.621C161.498 249.121 162.751 250.534 164.013 251.919C165.188 253.207 166.439 254.441 167.738 255.604C169.144 256.864 170.72 257.988 171.998 259.384C174.665 262.295 175.096 266.291 175.658 270.043L175.72 270.449C176.063 272.676 176.371 274.909 176.648 277.145C176.782 278.232 176.917 279.321 177.027 280.411L177.06 280.757C177.158 281.824 177.185 282.907 176.572 283.84C175.916 284.838 174.425 285.187 173.538 284.231C172.014 282.587 172.3 279.667 172.102 277.553C171.938 275.804 171.752 274.058 171.544 272.314L171.439 271.442C171.194 269.459 170.995 267.435 170.541 265.486C170.141 263.77 169.379 262.474 168.129 261.23C166.869 259.978 165.56 258.808 164.398 257.459C163.165 256.028 162.052 254.494 161.05 252.893C160.193 251.524 159.506 250.033 158.876 248.544L158.772 248.296C158.163 246.845 157.16 244.955 157.208 243.355ZM179.203 180.998C179.216 180.795 179.516 180.792 179.52 180.998C179.558 182.739 179.594 184.481 179.63 186.223C179.921 200.257 179.742 214.324 181.149 228.31C181.813 234.904 183.035 241.401 184.45 247.872C185.174 251.183 185.933 254.485 186.654 257.797C187.358 261.024 188.112 264.267 188.669 267.524C189.217 270.725 189.708 273.951 189.929 277.193L189.956 277.616C190.051 279.187 190.503 281.497 189.639 282.889C188.702 284.397 186.909 284.424 185.905 282.984C184.962 281.633 185.197 279.228 185.03 277.616C184.861 275.973 184.682 274.329 184.479 272.69C184.082 269.493 183.56 266.303 183.016 263.128C181.885 256.515 180.243 249.986 179.032 243.383C177.79 236.618 176.907 229.805 176.87 222.917C176.833 215.97 177.568 209.038 177.939 202.106C178.316 195.067 178.744 188.032 179.203 180.998ZM112.933 137.347C113.309 136.078 114.639 135.285 115.935 135.641C117.124 135.968 118.105 137.411 117.64 138.645C117.133 139.992 116.247 141.141 115.5 142.365C114.81 143.497 113.804 144.388 113.101 145.499L113.875 146.334C114.263 146.751 114.651 147.165 115.044 147.572L116.395 148.972C117.448 150.06 118.506 151.142 119.595 152.193C122.796 155.282 126.048 158.269 129.633 160.914C130.449 161.516 131.271 162.115 132.117 162.675L132.432 162.884C133.012 163.264 133.659 163.638 134.36 163.573C136.063 163.417 137.601 161.608 138.771 160.482L138.833 160.423C141.732 157.663 144.417 154.646 146.765 151.401C147.286 150.68 147.791 149.947 148.282 149.205C147.147 147.879 147.418 145.29 147.356 143.682C147.312 142.551 147.308 141.419 147.302 140.288L147.299 140.059C147.285 139.327 147.252 138.624 147.727 138.022C147.755 137.987 147.812 137.988 147.848 138.006C148.498 138.347 148.699 138.919 148.977 139.559L149.006 139.626C149.344 140.395 149.667 141.171 149.995 141.945C150.338 142.755 150.652 143.577 150.971 144.396C151.119 144.777 151.261 145.16 151.399 145.545C151.483 145.791 151.57 146.035 151.66 146.279L151.681 146.298C151.799 146.399 151.9 146.505 151.986 146.614C152.349 146.796 152.638 147.127 152.773 147.614C153.068 148.673 152.458 149.536 151.914 150.377C149.704 153.792 147.185 157.047 144.385 159.999C142.994 161.466 141.531 162.867 140.008 164.196L139.741 164.426C138.373 165.603 136.888 166.717 135.06 166.992C132.922 167.314 131.181 166.25 129.544 165.025L129.381 164.902C127.829 163.726 126.308 162.51 124.835 161.237C121.831 158.643 118.973 155.857 116.436 152.8C113.969 149.828 111.531 146.504 110.01 142.926C109.917 142.709 110.161 142.48 110.352 142.662C111.095 143.37 111.809 144.116 112.516 144.871C112.535 143.759 112.33 142.638 112.444 141.519C112.584 140.159 112.543 138.656 112.933 137.347Z" fill="black"/>
<path fill-rule="evenodd" clip-rule="evenodd" d="M167.436 88.6506C165.524 80.5868 161.344 73.0826 154.651 67.0178C134.512 47.0989 97.5264 57.9105 97.6939 87.9269C96.9716 91.4328 96.6784 95.0376 96.9175 98.613C97.0164 100.139 97.6764 102.267 96.7897 103.64C94.7897 106.209 93.6273 108.102 94.308 111.519C94.8767 114.502 96.9061 116.616 99.645 117.739C101.288 118.211 102.846 119.238 103.455 120.804C107.111 127.5 109.819 133.07 115.583 137.634C117.071 138.808 132.326 145.855 137.352 145.855C152.067 145.855 170.613 140.523 170.921 124.08C170.974 120.468 170.341 116.815 169.943 113.232C168.976 105.055 169.317 96.5821 167.436 88.6506Z" fill="white"/>
<path fill-rule="evenodd" clip-rule="evenodd" d="M167.105 84.6179C167.11 84.5182 167.253 84.4958 167.281 84.5943C167.828 86.5355 168.138 88.5131 168.565 90.4846C168.977 92.3836 169.366 94.2881 169.69 96.2037C170.301 99.8192 170.815 103.444 171.294 107.078L171.413 107.987C172.245 114.382 173.619 121.044 172.418 127.476C171.392 132.965 167.955 137.388 163.525 140.631C159.33 143.702 154.244 145.673 149.194 146.793C143.775 147.996 137.35 148.355 132.941 144.379C131.175 142.787 133.582 139.628 135.497 141.065C139.994 144.438 145.715 143.443 150.789 142.101L150.943 142.06C155.396 140.874 159.88 139.075 163.415 136.04C167.325 132.685 169.257 128.029 169.481 122.922C169.606 120.052 169.339 117.186 169.05 114.334L169.018 114.017C168.687 110.755 168.34 107.495 168.019 104.231C167.727 101.256 167.474 98.2626 167.341 95.2736L167.279 93.7661C167.149 90.7266 166.975 87.6428 167.105 84.6179ZM114.364 59.3633C121.682 55.552 130.092 54.188 138.236 55.4671C146.065 56.6967 153.25 60.7381 158.621 66.5331C161.243 69.3625 163.57 72.6353 165.058 76.2107C165.797 77.9869 166.375 79.8398 166.683 81.7428C166.841 82.7211 166.997 83.7347 167.027 84.7266C167.054 85.6449 166.785 86.5062 166.817 87.4397C166.822 87.5857 166.598 87.6139 166.564 87.4739C166.31 86.433 165.697 85.646 165.312 84.6573C165.025 83.919 164.699 83.1983 164.367 82.4798L164.082 81.8641C163.254 80.0746 162.265 78.3586 161.286 76.6488C159.315 73.2051 156.786 70.0754 153.825 67.4346C148.626 62.798 141.956 59.805 134.994 59.2661C127.769 58.7064 120.44 60.4293 114.269 64.2459C108.099 68.0623 103.433 73.9949 101.011 80.8255C99.7887 84.2724 99.1137 87.8639 98.9568 91.5156C98.8773 93.3641 98.9515 95.228 99.081 97.0728L99.1453 97.9526C99.2207 99.0076 99.2724 100.059 99.1148 101.088C100.228 100.741 101.394 100.597 102.565 100.769C104.305 101.024 105.344 101.738 106.125 103.293C106.166 103.374 106.084 103.455 106.003 103.415C104.991 102.909 103.354 103.175 102.283 103.44C101.168 103.716 100.163 104.195 99.2158 104.843C97.4629 106.041 96.0888 107.898 95.7516 110.028C95.4256 112.086 96.2701 114.169 97.6885 115.644C98.4187 116.404 99.2914 117.06 100.269 117.47C101.454 117.967 102.628 117.951 103.677 118.771C104.326 119.278 104.169 120.146 103.729 120.709C105.943 123.137 107.906 125.793 110.119 128.231C111.145 129.361 112.163 130.492 113.146 131.658L113.512 132.097C114.494 133.282 116.056 134.534 116.504 136.024C116.783 136.951 115.791 138.164 114.787 137.742C113.248 137.093 112.15 135.407 111.11 134.113L111.042 134.029C109.952 132.689 108.983 131.274 108.098 129.79L107.807 129.302C106.206 126.609 104.619 123.816 103.599 120.857C103.531 120.926 103.46 120.99 103.385 121.043C101.914 122.089 99.7767 121.285 98.3082 120.606C96.9218 119.965 95.6509 119 94.6602 117.837C92.5057 115.309 91.5125 112.035 92.2321 108.754C92.8416 105.974 94.7673 103.271 97.292 101.865C96.1266 100.523 95.6441 98.7136 95.323 96.9448C94.9131 94.6869 94.8314 92.373 94.9427 90.0835C95.1647 85.5232 96.3379 81.028 98.1514 76.8521C101.396 69.3802 107.132 63.1302 114.364 59.3633ZM98.9624 109.223C100.498 108.935 101.93 108.866 103.411 109.516C105.018 110.222 106.149 111.387 107.2 112.751C108.396 114.304 105.331 116 104.558 113.939L104.535 113.875C104.328 113.265 103.957 112.675 103.488 112.132C103.347 112.348 103.158 112.539 102.937 112.647C102.669 112.779 102.259 112.688 102.195 112.345C102.123 111.965 102.202 111.504 102.422 111.183L102.452 111.139C101.386 110.281 100.104 109.654 98.9624 109.452C98.8483 109.432 98.8496 109.244 98.9624 109.223Z" fill="black"/>
<path fill-rule="evenodd" clip-rule="evenodd" d="M147.054 131.493C145.633 130.914 144.366 129.947 143.44 128.712C143.118 128.282 143.034 127.829 143.102 127.414C143.178 126.948 143.453 126.525 143.829 126.242C144.207 125.958 144.679 125.817 145.135 125.889C145.531 125.951 145.926 126.168 146.238 126.618L146.303 126.708C146.854 127.454 147.572 128.065 148.39 128.46C149.178 128.84 150.059 129.017 150.972 128.914C152.709 128.718 153.907 127.778 155.179 126.501C155.337 126.34 155.495 126.174 155.654 126.005C155.754 125.852 155.893 125.753 156.047 125.702C156.219 125.644 156.412 125.648 156.59 125.71C156.761 125.769 156.914 125.883 157.017 126.033C157.115 126.177 157.17 126.354 157.152 126.558C157.036 127.88 156.344 129.061 155.362 129.988C154.272 131.018 152.826 131.73 151.465 131.98C149.965 132.255 148.437 132.058 147.054 131.493ZM152.172 111.085C153.767 112.055 156.198 114.317 154.482 116.722C152.462 118.843 149.553 116.412 148.12 115.312C146.791 114.46 145.298 116.652 146.531 117.647C156.888 125.318 161.091 111.339 152.979 109.945C152.086 109.791 151.754 110.785 152.172 111.085ZM133.612 102.162C133.788 99.9731 137.121 99.476 137.452 101.642C137.749 103.582 137.399 105.364 136.526 107.111C135.691 108.78 133.593 108.002 133.434 106.482C133.222 104.445 133.502 103.523 133.612 102.162ZM158.978 101.193C159.442 100.584 160.113 100.169 160.917 100.403C163.428 101.137 162.687 104.704 161.806 106.439C161.326 107.382 159.778 107.621 159.078 106.791C157.937 105.438 157.391 102.735 158.841 101.401C158.88 101.333 158.924 101.263 158.978 101.193ZM136.49 92.5843L136.887 92.5149C138.114 92.3026 139.64 92.0986 140.508 93.0855C140.968 93.6088 141.126 94.5814 140.508 95.0823C139.419 95.9636 138.216 95.6221 136.911 95.6967C135.837 95.7584 134.803 95.9364 133.768 96.2325C131.496 96.8819 129.646 98.0676 127.706 99.3695C127.451 99.5403 127.191 99.2146 127.313 98.9764C128.432 96.782 130.603 94.9794 132.777 93.8806C133.937 93.2941 135.207 92.8075 136.49 92.5843ZM156.689 91.6013L156.992 91.6635C160.296 92.3543 164.588 93.7343 166.153 96.9805C166.212 97.4395 166.149 97.5379 166.098 97.6022L166.081 97.6236C166.039 97.6785 166.005 97.7541 165.806 97.8166C165.751 97.8034 165.695 97.7895 165.639 97.7747C164.922 97.5867 164.354 97.3277 163.805 97.059L163.21 96.7655C162.519 96.4266 161.822 96.1 161.083 95.8589C159.506 95.3444 157.885 94.9821 156.238 94.7886C155.881 94.7467 155.537 94.6262 155.266 94.4196C155.009 94.2236 154.812 93.9522 154.723 93.5914C154.606 93.1245 154.64 92.7711 154.89 92.3499C155.079 92.0336 155.348 91.8143 155.657 91.6884C155.973 91.5601 156.332 91.5298 156.689 91.6013Z" fill="black"/>
<path fill-rule="evenodd" clip-rule="evenodd" d="M171.08 112.372C168.515 115.023 164.233 115.784 160.82 114.362C152.058 110.7 156.347 99.2763 163.104 96.2085C163.949 95.998 165.076 95.4986 166.104 95.3853C166.197 95.3397 166.4 95.4717 166.645 95.3468C174.097 96.1791 175.794 107.751 171.08 112.372ZM142.817 113.051C139.94 116.868 134.591 118.045 130.222 116.271C121.589 112.87 124.651 102.74 130.557 98.7688C143.034 94.0787 148.186 106.012 142.817 113.051ZM124.103 104.593C124.095 104.589 124.087 104.587 124.078 104.583C124.124 104.563 124.17 104.543 124.215 104.523C124.2 104.561 124.184 104.6 124.17 104.638C124.147 104.623 124.128 104.605 124.103 104.593ZM177.019 100.467C176.315 100.468 175.297 100.584 174.714 101.073C173.276 96.2216 167.969 91.7319 163.353 95.0057C159.718 96.1751 157.021 98.7686 155.488 102.217C152.724 100.572 148.378 101.274 145.981 103.449C144.411 98.2603 140.548 96.4433 135.95 96.1751C130.931 95.3528 125.928 100.229 124.367 104.14C123.07 103.993 121.13 103.58 119.909 104.381C111.985 102.302 98.1316 101.156 96.5206 102.311C95.3726 102.751 94.7426 105.462 96.3461 105.609C97.7435 105.41 96.183 103.622 97.5916 103.427C105.096 102.962 112.382 104.474 119.807 105.108C120.47 106 122.612 106.299 123.755 105.94C121.955 112.576 125.841 117.09 131.662 118.443C140.676 120.514 148.519 112.447 146.162 104.057C148.892 102.698 152.033 102.756 155.008 103.472C150.037 121.773 179.5 120.952 174.898 101.7C177.96 103.224 178.626 100.774 177.019 100.467Z" fill="black"/>
</svg>
